<mxfile host="app.diagrams.net" modified="2021-03-07T15:08:36.052Z" agent="5.0 (Windows NT 10.0; Win64; x64) AppleWebKit/537.36 (KHTML, like Gecko) Chrome/88.0.4324.190 Safari/537.36" etag="FoXW9S-c_mq8tBwlgFwq" version="14.4.4" type="github">
  <diagram id="C5RBs43oDa-KdzZeNtuy" name="Page-1">
    <mxGraphModel dx="1038" dy="548" grid="1" gridSize="10" guides="1" tooltips="1" connect="1" arrows="1" fold="1" page="1" pageScale="1" pageWidth="827" pageHeight="1169" background="#283618" math="0" shadow="0">
      <root>
        <mxCell id="WIyWlLk6GJQsqaUBKTNV-0" />
        <mxCell id="WIyWlLk6GJQsqaUBKTNV-1" parent="WIyWlLk6GJQsqaUBKTNV-0" />
        <mxCell id="YbcMuKqUwYt0H_rFrsmF-2" style="edgeStyle=orthogonalEdgeStyle;curved=0;rounded=1;sketch=0;orthogonalLoop=1;jettySize=auto;html=1;exitX=1;exitY=0.5;exitDx=0;exitDy=0;strokeColor=#DDA15E;fillColor=#BC6C25;fontColor=#FEFAE0;" edge="1" parent="WIyWlLk6GJQsqaUBKTNV-1" source="YbcMuKqUwYt0H_rFrsmF-0" target="YbcMuKqUwYt0H_rFrsmF-1">
          <mxGeometry relative="1" as="geometry" />
        </mxCell>
        <mxCell id="YbcMuKqUwYt0H_rFrsmF-0" value="&lt;font style=&quot;font-size: 18px&quot;&gt;Begin&lt;/font&gt;" style="ellipse;whiteSpace=wrap;html=1;rounded=0;sketch=0;strokeColor=#DDA15E;fillColor=#BC6C25;fontColor=#FEFAE0;" vertex="1" parent="WIyWlLk6GJQsqaUBKTNV-1">
          <mxGeometry width="120" height="80" as="geometry" />
        </mxCell>
        <mxCell id="YbcMuKqUwYt0H_rFrsmF-12" style="edgeStyle=orthogonalEdgeStyle;curved=0;rounded=1;sketch=0;orthogonalLoop=1;jettySize=auto;html=1;exitX=1;exitY=0.5;exitDx=0;exitDy=0;entryX=0;entryY=0.5;entryDx=0;entryDy=0;strokeColor=#DDA15E;fillColor=#BC6C25;fontColor=#FEFAE0;" edge="1" parent="WIyWlLk6GJQsqaUBKTNV-1" source="YbcMuKqUwYt0H_rFrsmF-1" target="YbcMuKqUwYt0H_rFrsmF-11">
          <mxGeometry relative="1" as="geometry" />
        </mxCell>
        <mxCell id="YbcMuKqUwYt0H_rFrsmF-1" value="&lt;font style=&quot;font-size: 24px&quot;&gt;Nhập n&lt;/font&gt;" style="shape=parallelogram;perimeter=parallelogramPerimeter;whiteSpace=wrap;html=1;fixedSize=1;rounded=0;sketch=0;strokeColor=#DDA15E;fillColor=#BC6C25;fontColor=#FEFAE0;" vertex="1" parent="WIyWlLk6GJQsqaUBKTNV-1">
          <mxGeometry x="170" y="10" width="120" height="60" as="geometry" />
        </mxCell>
        <mxCell id="YbcMuKqUwYt0H_rFrsmF-5" style="edgeStyle=orthogonalEdgeStyle;curved=0;rounded=1;sketch=0;orthogonalLoop=1;jettySize=auto;html=1;exitX=0.5;exitY=1;exitDx=0;exitDy=0;strokeColor=#DDA15E;fillColor=#BC6C25;fontColor=#FEFAE0;" edge="1" parent="WIyWlLk6GJQsqaUBKTNV-1" source="YbcMuKqUwYt0H_rFrsmF-3">
          <mxGeometry relative="1" as="geometry">
            <mxPoint x="414" y="190" as="targetPoint" />
          </mxGeometry>
        </mxCell>
        <mxCell id="YbcMuKqUwYt0H_rFrsmF-3" value="&lt;font style=&quot;font-size: 18px&quot;&gt;n&amp;gt;0&lt;/font&gt;" style="rhombus;whiteSpace=wrap;html=1;rounded=0;sketch=0;strokeColor=#DDA15E;fillColor=#BC6C25;fontColor=#FEFAE0;" vertex="1" parent="WIyWlLk6GJQsqaUBKTNV-1">
          <mxGeometry x="530" width="80" height="80" as="geometry" />
        </mxCell>
        <mxCell id="YbcMuKqUwYt0H_rFrsmF-6" value="Đúng" style="text;html=1;strokeColor=none;fillColor=none;align=center;verticalAlign=middle;whiteSpace=wrap;rounded=0;sketch=0;fontColor=#FEFAE0;" vertex="1" parent="WIyWlLk6GJQsqaUBKTNV-1">
          <mxGeometry x="474" y="110" width="40" height="20" as="geometry" />
        </mxCell>
        <mxCell id="YbcMuKqUwYt0H_rFrsmF-8" value="" style="endArrow=none;html=1;strokeColor=#DDA15E;fillColor=#BC6C25;fontColor=#FEFAE0;" edge="1" parent="WIyWlLk6GJQsqaUBKTNV-1">
          <mxGeometry width="50" height="50" relative="1" as="geometry">
            <mxPoint x="610" y="40" as="sourcePoint" />
            <mxPoint x="716" y="40" as="targetPoint" />
          </mxGeometry>
        </mxCell>
        <mxCell id="YbcMuKqUwYt0H_rFrsmF-9" value="Sai" style="text;html=1;strokeColor=none;fillColor=none;align=center;verticalAlign=middle;whiteSpace=wrap;rounded=0;sketch=0;fontColor=#FEFAE0;" vertex="1" parent="WIyWlLk6GJQsqaUBKTNV-1">
          <mxGeometry x="640" y="10" width="40" height="20" as="geometry" />
        </mxCell>
        <mxCell id="YbcMuKqUwYt0H_rFrsmF-15" style="edgeStyle=orthogonalEdgeStyle;curved=0;rounded=1;sketch=0;orthogonalLoop=1;jettySize=auto;html=1;exitX=0.5;exitY=1;exitDx=0;exitDy=0;entryX=0.5;entryY=0;entryDx=0;entryDy=0;strokeColor=#DDA15E;fillColor=#BC6C25;fontColor=#FEFAE0;" edge="1" parent="WIyWlLk6GJQsqaUBKTNV-1" source="YbcMuKqUwYt0H_rFrsmF-10" target="YbcMuKqUwYt0H_rFrsmF-14">
          <mxGeometry relative="1" as="geometry" />
        </mxCell>
        <mxCell id="YbcMuKqUwYt0H_rFrsmF-10" value="&lt;font style=&quot;font-size: 24px&quot;&gt;i&amp;lt;==1&lt;/font&gt;" style="rounded=0;whiteSpace=wrap;html=1;sketch=0;strokeColor=#DDA15E;fillColor=#BC6C25;fontColor=#FEFAE0;" vertex="1" parent="WIyWlLk6GJQsqaUBKTNV-1">
          <mxGeometry x="354" y="190" width="120" height="60" as="geometry" />
        </mxCell>
        <mxCell id="YbcMuKqUwYt0H_rFrsmF-13" style="edgeStyle=orthogonalEdgeStyle;curved=0;rounded=1;sketch=0;orthogonalLoop=1;jettySize=auto;html=1;entryX=0;entryY=0.5;entryDx=0;entryDy=0;strokeColor=#DDA15E;fillColor=#BC6C25;fontColor=#FEFAE0;" edge="1" parent="WIyWlLk6GJQsqaUBKTNV-1" source="YbcMuKqUwYt0H_rFrsmF-11" target="YbcMuKqUwYt0H_rFrsmF-3">
          <mxGeometry relative="1" as="geometry" />
        </mxCell>
        <mxCell id="YbcMuKqUwYt0H_rFrsmF-11" value="&lt;font style=&quot;font-size: 24px&quot;&gt;S=1&lt;/font&gt;" style="rounded=0;whiteSpace=wrap;html=1;sketch=0;strokeColor=#DDA15E;fillColor=#BC6C25;fontColor=#FEFAE0;" vertex="1" parent="WIyWlLk6GJQsqaUBKTNV-1">
          <mxGeometry x="354" y="10" width="120" height="60" as="geometry" />
        </mxCell>
        <mxCell id="YbcMuKqUwYt0H_rFrsmF-17" style="edgeStyle=orthogonalEdgeStyle;curved=0;rounded=1;sketch=0;orthogonalLoop=1;jettySize=auto;html=1;exitX=0.5;exitY=1;exitDx=0;exitDy=0;entryX=0.5;entryY=0;entryDx=0;entryDy=0;strokeColor=#DDA15E;fillColor=#BC6C25;fontColor=#FEFAE0;" edge="1" parent="WIyWlLk6GJQsqaUBKTNV-1" source="YbcMuKqUwYt0H_rFrsmF-14" target="YbcMuKqUwYt0H_rFrsmF-16">
          <mxGeometry relative="1" as="geometry" />
        </mxCell>
        <mxCell id="YbcMuKqUwYt0H_rFrsmF-14" value="&lt;font style=&quot;font-size: 24px&quot;&gt;S&amp;lt;==S*i&lt;/font&gt;" style="rounded=0;whiteSpace=wrap;html=1;sketch=0;strokeColor=#DDA15E;fillColor=#BC6C25;fontColor=#FEFAE0;" vertex="1" parent="WIyWlLk6GJQsqaUBKTNV-1">
          <mxGeometry x="354" y="310" width="120" height="60" as="geometry" />
        </mxCell>
        <mxCell id="YbcMuKqUwYt0H_rFrsmF-20" style="edgeStyle=orthogonalEdgeStyle;curved=0;rounded=1;sketch=0;orthogonalLoop=1;jettySize=auto;html=1;exitX=0.5;exitY=1;exitDx=0;exitDy=0;entryX=0.5;entryY=0;entryDx=0;entryDy=0;strokeColor=#DDA15E;fillColor=#BC6C25;fontColor=#FEFAE0;" edge="1" parent="WIyWlLk6GJQsqaUBKTNV-1" source="YbcMuKqUwYt0H_rFrsmF-16" target="YbcMuKqUwYt0H_rFrsmF-19">
          <mxGeometry relative="1" as="geometry" />
        </mxCell>
        <mxCell id="YbcMuKqUwYt0H_rFrsmF-16" value="&lt;font style=&quot;font-size: 24px&quot;&gt;i&amp;lt;==i+1&lt;/font&gt;" style="rounded=0;whiteSpace=wrap;html=1;sketch=0;strokeColor=#DDA15E;fillColor=#BC6C25;fontColor=#FEFAE0;" vertex="1" parent="WIyWlLk6GJQsqaUBKTNV-1">
          <mxGeometry x="354" y="420" width="120" height="60" as="geometry" />
        </mxCell>
        <mxCell id="YbcMuKqUwYt0H_rFrsmF-21" style="edgeStyle=orthogonalEdgeStyle;curved=0;rounded=1;sketch=0;orthogonalLoop=1;jettySize=auto;html=1;exitX=0.5;exitY=1;exitDx=0;exitDy=0;strokeColor=#DDA15E;fillColor=#BC6C25;fontColor=#FEFAE0;" edge="1" parent="WIyWlLk6GJQsqaUBKTNV-1" source="YbcMuKqUwYt0H_rFrsmF-19">
          <mxGeometry relative="1" as="geometry">
            <mxPoint x="414" y="690" as="targetPoint" />
          </mxGeometry>
        </mxCell>
        <mxCell id="YbcMuKqUwYt0H_rFrsmF-19" value="&lt;font style=&quot;font-size: 24px&quot;&gt;i&amp;gt;n&lt;/font&gt;" style="rhombus;whiteSpace=wrap;html=1;rounded=0;sketch=0;strokeColor=#DDA15E;fillColor=#BC6C25;fontColor=#FEFAE0;" vertex="1" parent="WIyWlLk6GJQsqaUBKTNV-1">
          <mxGeometry x="374" y="520" width="80" height="80" as="geometry" />
        </mxCell>
        <mxCell id="YbcMuKqUwYt0H_rFrsmF-23" value="Đúng" style="text;html=1;strokeColor=none;fillColor=none;align=center;verticalAlign=middle;whiteSpace=wrap;rounded=0;sketch=0;fontColor=#FEFAE0;" vertex="1" parent="WIyWlLk6GJQsqaUBKTNV-1">
          <mxGeometry x="374" y="620" width="40" height="20" as="geometry" />
        </mxCell>
        <mxCell id="YbcMuKqUwYt0H_rFrsmF-32" style="edgeStyle=orthogonalEdgeStyle;curved=0;rounded=1;sketch=0;orthogonalLoop=1;jettySize=auto;html=1;exitX=1;exitY=0.5;exitDx=0;exitDy=0;entryX=0;entryY=0.5;entryDx=0;entryDy=0;strokeColor=#DDA15E;fillColor=#BC6C25;fontColor=#FEFAE0;" edge="1" parent="WIyWlLk6GJQsqaUBKTNV-1" source="YbcMuKqUwYt0H_rFrsmF-24" target="YbcMuKqUwYt0H_rFrsmF-31">
          <mxGeometry relative="1" as="geometry" />
        </mxCell>
        <mxCell id="YbcMuKqUwYt0H_rFrsmF-24" value="&lt;font style=&quot;font-size: 18px&quot;&gt;Giai thừa&lt;br&gt;&amp;nbsp;của n là S&lt;/font&gt;" style="shape=parallelogram;perimeter=parallelogramPerimeter;whiteSpace=wrap;html=1;fixedSize=1;rounded=0;sketch=0;strokeColor=#DDA15E;fillColor=#BC6C25;fontColor=#FEFAE0;" vertex="1" parent="WIyWlLk6GJQsqaUBKTNV-1">
          <mxGeometry x="354" y="690" width="120" height="60" as="geometry" />
        </mxCell>
        <mxCell id="YbcMuKqUwYt0H_rFrsmF-26" value="" style="endArrow=none;html=1;strokeColor=#DDA15E;fillColor=#BC6C25;fontColor=#FEFAE0;" edge="1" parent="WIyWlLk6GJQsqaUBKTNV-1">
          <mxGeometry width="50" height="50" relative="1" as="geometry">
            <mxPoint x="240" y="560" as="sourcePoint" />
            <mxPoint x="374" y="560" as="targetPoint" />
          </mxGeometry>
        </mxCell>
        <mxCell id="YbcMuKqUwYt0H_rFrsmF-27" value="Sai" style="text;html=1;strokeColor=none;fillColor=none;align=center;verticalAlign=middle;whiteSpace=wrap;rounded=0;sketch=0;fontColor=#FEFAE0;" vertex="1" parent="WIyWlLk6GJQsqaUBKTNV-1">
          <mxGeometry x="290" y="540" width="40" height="20" as="geometry" />
        </mxCell>
        <mxCell id="YbcMuKqUwYt0H_rFrsmF-29" value="" style="endArrow=none;html=1;strokeColor=#DDA15E;fillColor=#BC6C25;fontColor=#FEFAE0;" edge="1" parent="WIyWlLk6GJQsqaUBKTNV-1">
          <mxGeometry width="50" height="50" relative="1" as="geometry">
            <mxPoint x="240" y="560" as="sourcePoint" />
            <mxPoint x="240" y="90" as="targetPoint" />
          </mxGeometry>
        </mxCell>
        <mxCell id="YbcMuKqUwYt0H_rFrsmF-30" value="" style="endArrow=classic;html=1;strokeColor=#DDA15E;fillColor=#BC6C25;fontColor=#FEFAE0;" edge="1" parent="WIyWlLk6GJQsqaUBKTNV-1">
          <mxGeometry width="50" height="50" relative="1" as="geometry">
            <mxPoint x="240" y="90" as="sourcePoint" />
            <mxPoint x="570" y="90" as="targetPoint" />
          </mxGeometry>
        </mxCell>
        <mxCell id="YbcMuKqUwYt0H_rFrsmF-31" value="&lt;font style=&quot;font-size: 24px&quot;&gt;End&lt;/font&gt;" style="ellipse;whiteSpace=wrap;html=1;rounded=0;sketch=0;strokeColor=#DDA15E;fillColor=#BC6C25;fontColor=#FEFAE0;" vertex="1" parent="WIyWlLk6GJQsqaUBKTNV-1">
          <mxGeometry x="620" y="680" width="120" height="80" as="geometry" />
        </mxCell>
        <mxCell id="YbcMuKqUwYt0H_rFrsmF-33" value="" style="endArrow=classic;html=1;strokeColor=#DDA15E;fillColor=#BC6C25;fontColor=#FEFAE0;entryX=0.703;entryY=0.025;entryDx=0;entryDy=0;entryPerimeter=0;" edge="1" parent="WIyWlLk6GJQsqaUBKTNV-1" target="YbcMuKqUwYt0H_rFrsmF-31">
          <mxGeometry width="50" height="50" relative="1" as="geometry">
            <mxPoint x="710" y="40" as="sourcePoint" />
            <mxPoint x="760" y="-10" as="targetPoint" />
          </mxGeometry>
        </mxCell>
      </root>
    </mxGraphModel>
  </diagram>
</mxfile>
